Coordinates
version=1
nRows=54
nColumns=12
inDegrees=yes

Units are S.I. units (second, meters, Newtons, ...)
Angles are in degrees

endheader
time	SC_y	SC_z	SC_x	AC_y	AC_z	AC_x	GH_y	GH_z	GH_yy	EL_x	PS_y
       0.0              -39.72          25.86          18.81          38.36         -8.306          1.187           62.7          89.67           49.5          139.7          96.93
   0.01152              -39.71          25.86          18.82          38.36         -8.306          1.186          62.69          89.66          49.49          139.7          96.92
   0.02304              -39.71          25.85          18.82          38.36         -8.307          1.186          62.67          89.65          49.48          139.7          96.92
   0.03456              -39.71          25.85          18.82          38.37         -8.307          1.185          62.65          89.64          49.47          139.7          96.91
   0.04608               -39.7          25.85          18.82          38.37         -8.308          1.184          62.63          89.63          49.47          139.7           96.9
   0.05759               -39.7          25.84          18.82          38.37         -8.308          1.183          62.61          89.62          49.46          139.6          96.89
   0.06911              -39.69          25.84          18.83          38.37         -8.308          1.182          62.59          89.61          49.45          139.6          96.88
   0.08063              -39.69          25.83          18.83          38.37         -8.309          1.181          62.57           89.6          49.44          139.6          96.87
   0.09215              -39.68          25.83          18.83          38.38         -8.309           1.18          62.55          89.59          49.42          139.6          96.86
    0.1037              -39.68          25.83          18.84          38.38          -8.31          1.179          62.52          89.58          49.41          139.6          96.85
    0.1152              -39.67          25.82          18.84          38.38         -8.311          1.177          62.49          89.56           49.4          139.6          96.83
    0.1267              -39.66          25.82          18.84          38.39         -8.311          1.176          62.46          89.55          49.38          139.6          96.82
    0.1382              -39.66          25.81          18.85          38.39         -8.312          1.174          62.43          89.53          49.37          139.6           96.8
    0.1497              -39.65           25.8          18.85          38.39         -8.313          1.173           62.4          89.52          49.35          139.5          96.79
    0.1613              -39.64           25.8          18.86           38.4         -8.314          1.171          62.36           89.5          49.33          139.5          96.77
    0.1728              -39.63          25.79          18.86           38.4         -8.314          1.169          62.32          89.48          49.32          139.5          96.75
    0.1843              -39.62          25.78          18.87          38.41         -8.315          1.167          62.28          89.46          49.29          139.5          96.73
    0.1958              -39.61          25.77          18.87          38.41         -8.316          1.165          62.23          89.43          49.27          139.5          96.71
    0.2073               -39.6          25.77          18.88          38.42         -8.318          1.162          62.18          89.41          49.25          139.4          96.68
    0.2189              -39.58          25.76          18.89          38.42         -8.319          1.159          62.12          89.38          49.22          139.4          96.65
    0.2304              -39.57          25.74          18.89          38.43          -8.32          1.156          62.05          89.35          49.19          139.4          96.62
    0.2419              -39.55          25.73           18.9          38.44         -8.322          1.153          61.99          89.32          49.16          139.4          96.59
    0.2534              -39.53          25.72          18.91          38.45         -8.323          1.149          61.91          89.28          49.12          139.3          96.56
    0.2649              -39.52           25.7          18.92          38.45         -8.325          1.145          61.82          89.24          49.08          139.3          96.51
    0.2765              -39.49          25.69          18.93          38.46         -8.327          1.141          61.73          89.19          49.03          139.3          96.47
     0.288              -39.47          25.67          18.95          38.48          -8.33          1.136          61.62          89.14          48.98          139.2          96.42
    0.2995              -39.44          25.65          18.96          38.49         -8.332           1.13          61.51          89.08          48.93          139.2          96.36
     0.311              -39.41          25.63          18.98           38.5         -8.335          1.124          61.37          89.02          48.86          139.1           96.3
    0.3225              -39.38           25.6           19.0          38.52         -8.338          1.117          61.22          88.94          48.79          139.0          96.23
     0.334              -39.34          25.57          19.02          38.54         -8.342          1.109          61.05          88.86          48.71          138.9          96.15
    0.3456              -39.29          25.53          19.04          38.56         -8.346          1.099          60.86          88.76          48.62          138.9          96.06
    0.3571              -39.24           25.5          19.07          38.58         -8.351          1.089          60.64          88.65          48.51          138.8          95.95
    0.3686              -39.18          25.45           19.1          38.61         -8.357          1.077          60.38          88.53          48.39          138.6          95.83
    0.3801              -39.11           25.4          19.14          38.64         -8.363          1.062          60.08          88.38          48.25          138.5          95.69
    0.3916              -39.03          25.34          19.18          38.68         -8.371          1.046          59.73          88.21          48.08          138.4          95.52
    0.4032              -38.94          25.26          19.23          38.72          -8.38          1.026          59.32          88.01          47.88          138.2          95.32
    0.4147              -38.83          25.18          19.29          38.78         -8.391          1.003          58.83          87.77          47.65          138.0          95.09
    0.4262              -38.69          25.08          19.37          38.84         -8.404         0.9749          58.24          87.48          47.37          137.7          94.81
    0.4377              -38.53          24.95          19.45          38.92         -8.419         0.9411          57.53          87.13          47.03          137.4          94.47
    0.4492              -38.33           24.8          19.56          39.01         -8.438         0.8998          56.66          86.71          46.61          137.0          94.06
    0.4608              -38.08          24.61          19.69          39.12         -8.462         0.8489          55.59          86.18           46.1          136.5          93.55
    0.4723              -37.78          24.38          19.86          39.27         -8.491         0.7853          54.25          85.53          45.46          135.9          92.92
    0.4838              -37.39          24.08          20.07          39.45         -8.528         0.7053          52.57           84.7          44.66          135.2          92.12
    0.4953               -36.9          23.71          20.33          39.68         -8.575         0.6035          50.42          83.65          43.64          134.2           91.1
    0.5068              -36.27          23.23          20.67          39.97         -8.635         0.4733          47.68          82.31          42.33          133.0           89.8
    0.5184              -35.46          22.61          21.11          40.35         -8.712         0.3061          44.17          80.59          40.65          131.4          88.12
    0.5299              -34.43          21.82          21.66          40.83          -8.81        0.09259          39.68          78.38           38.5          129.4          85.99
    0.5414              -33.13          20.83          22.36          41.44         -8.934        -0.1759          34.03          75.62          35.81          126.9          83.31
    0.5529              -31.55          19.63          23.21          42.17         -9.085        -0.5031          27.15          72.24          32.52          123.8          80.03
    0.5644              -29.72          18.23           24.2          43.03          -9.26        -0.8823          19.17          68.34          28.71          120.3          76.24
    0.5759              -27.74          16.71          25.27          43.96         -9.449         -1.293          10.53           64.1          24.59          116.4          72.14
    0.5875              -25.75           15.2          26.34          44.88         -9.638         -1.704           1.89          59.87          20.46          112.5          68.03
     0.599              -23.92           13.8          27.32          45.74         -9.813         -2.083         -6.088          55.96          16.65          109.0          64.24
    0.6105              -22.34           12.6          28.18          46.48         -9.964          -2.41         -12.97          52.59          13.36          105.9          60.97
